<?xml version="1.0" encoding="UTF-8" standalone="no"?>
<!DOCTYPE svg PUBLIC "-//W3C//DTD SVG 1.1//EN" "http://www.w3.org/Graphics/SVG/1.1/DTD/svg11.dtd">
<svg xmlns="http://www.w3.org/2000/svg" xmlns:xlink="http://www.w3.org/1999/xlink" version="1.1" width="345.12pt" height="283.92pt" viewBox="0 0 345.12 283.92">
<g enable-background="new">
<g>
<g id="Layer-1" data-name="P">
<clipPath id="cp0">
<path transform="matrix(1,0,0,-1,0,283.92)" d="M .000005143 0 L 345.12 0 L 345.12 283.92 L .000005143 283.92 Z " fill-rule="evenodd"/>
</clipPath>
<g clip-path="url(#cp0)">
<text xml:space="preserve" transform="matrix(1 0 -0 1 0 283.92)" font-size="11.04" font-family="Calibri"><tspan y="0" x="344.88"> </tspan></text>
</g>
</g>
<g id="Layer-1" data-name="P">
<clipPath id="cp1">
<path transform="matrix(1,0,0,-1,0,283.92)" d="M .000005143 .22006 L 344.64 .22006 L 344.64 283.92008 L .000005143 283.92008 Z " fill-rule="evenodd"/>
</clipPath>
<g clip-path="url(#cp1)">
<clipPath id="cp2">
<path transform="matrix(.0932334,0,0,-.09323538,0,283.69996)" d="M 0 0 L 3696.43 0 L 3696.43 3042.87 L 0 3042.87 Z " fill-rule="evenodd"/>
</clipPath>
<g clip-path="url(#cp2)">
<path transform="matrix(.0932334,0,0,-.09323538,0,283.69996)" stroke-width="15" stroke-linecap="round" stroke-dasharray="60,30" stroke-linejoin="round" fill="none" stroke="#000000" d="M 3337.96 1650.32 C 3337.96 953.08 2772.73 387.85 2075.49 387.85 C 1378.24 387.85 813.01 953.08 813.01 1650.32 C 813.01 2347.57 1378.24 2912.8 2075.49 2912.8 C 2772.73 2912.8 3337.96 2347.57 3337.96 1650.32 Z "/>
<path transform="matrix(.0932334,0,0,-.09323538,0,283.69996)" stroke-width="15" stroke-linecap="round" stroke-linejoin="round" fill="none" stroke="#e51b00" d="M 3504.26 1970.71 C 3388.61 716.55 2411.48 60.378 1321.78 505.11 C 879.7 685.53 466.19 1031.59 147.56 1487.8 "/>
<path transform="matrix(.0932334,0,0,-.09323538,0,283.69996)" d="M 2442.92 447.6 L 3105.9 688.9 L 3111.03 674.8 L 2448.05 433.5 C 2444.15 432.08 2439.85 434.09 2438.43 437.98 C 2437.02 441.87 2439.02 446.18 2442.92 447.6 Z M 3221.12 722.85 L 3064.77 713.84 L 3105.79 688.86 L 3110.92 674.76 L 3095.55 629.26 Z " fill="#0080ff"/>
<path transform="matrix(.0932334,0,0,-.09323538,0,283.69996)" stroke-width="15" stroke-linecap="round" stroke-linejoin="round" fill="none" stroke="#0080ff" d="M 2005.6 1628.89 L 2443.23 440.22 "/>
<path transform="matrix(.0932334,0,0,-.09323538,0,283.69996)" d="M 2751.01 596.44 L 3328.95 1001.12 L 3337.55 988.83 L 2759.61 584.16 C 2756.22 581.78 2751.54 582.61 2749.16 586 C 2746.79 589.39 2747.61 594.07 2751.01 596.44 Z M 3431.45 1063.73 L 3282.77 1014.56 L 3328.85 1001.05 L 3337.45 988.76 L 3334.39 940.84 Z " fill="#008000"/>
<path transform="matrix(.0932334,0,0,-.09323538,0,283.69996)" stroke-width="15" stroke-linecap="round" stroke-linejoin="round" fill="none" stroke="#008000" d="M 2012.49 1621.58 L 2742.86 586.67 "/>
<path transform="matrix(.0932334,0,0,-.09323538,0,283.69996)" stroke-width="15" stroke-linecap="round" stroke-linejoin="round" fill="none" stroke="#000000" d="M 2266.18 1254.7 C 2234.22 1232 2199.43 1213.57 2162.7 1199.89 "/>
<clipPath id="cp3">
<path transform="matrix(1.8646615,0,0,-1.8646749,211.27155,172.81232)" d="M 0 0 L 18.205 0 L 18.205 17.334 L 0 17.334 Z " fill-rule="evenodd"/>
</clipPath>
<g clip-path="url(#cp3)">
<path transform="matrix(1.8646615,0,0,-1.8646749,211.27155,172.81232)" d="M 10.574 5.5567 C 10.586 5.5311 10.591 5.5078 10.591 5.4865 C 10.591 5.4575 10.584 5.4359 10.569 5.4217 C 10.546 5.3786 10.504 5.357 10.441 5.357 L 2.2124 5.357 C 2.153 5.357 2.1105 5.3786 2.0845 5.4217 C 2.0697 5.4359 2.0623 5.4575 2.0623 5.4865 C 2.0623 5.5078 2.068 5.5311 2.0788 5.5567 L 6.021 13.238 C 6.0692 13.342 6.1546 13.392 6.2767 13.389 L 6.3766 13.389 C 6.4916 13.389 6.577 13.34 6.6323 13.243 L 10.574 5.5567 Z M 5.993 12.18 L 2.9462 6.2476 L 9.0344 6.2476 Z " fill-rule="evenodd"/>
<path transform="matrix(1.8646615,0,0,-1.8646749,211.27155,172.81232)" d="M 16.156 12.029 C 16.245 11.687 16.29 11.338 16.29 10.982 C 16.29 10.87 16.286 10.762 16.279 10.658 C 16.242 10.182 16.162 9.7057 16.04 9.2273 C 15.906 8.7449 15.738 8.2668 15.534 7.7938 C 15.33 7.3205 15.059 6.8664 14.722 6.4312 C 14.607 6.2834 14.48 6.1373 14.341 5.9936 C 14.202 5.8495 14.053 5.721 13.894 5.6076 C 13.734 5.4943 13.568 5.4015 13.396 5.33 C 13.224 5.2578 13.043 5.222 12.854 5.222 C 12.661 5.222 12.495 5.2588 12.356 5.3327 C 12.217 5.4062 12.098 5.5014 11.998 5.6184 C 11.898 5.7352 11.815 5.8657 11.75 6.0098 C 11.686 6.1535 11.633 6.3013 11.592 6.4528 C 11.499 6.7871 11.453 7.1326 11.453 7.4892 C 11.453 7.6039 11.46 7.7172 11.475 7.8292 C 11.505 8.2968 11.584 8.7698 11.714 9.2489 C 11.836 9.7307 12.001 10.207 12.209 10.679 C 12.417 11.15 12.693 11.606 13.037 12.045 C 13.152 12.192 13.279 12.339 13.416 12.485 C 13.553 12.63 13.699 12.76 13.855 12.873 C 14.01 12.987 14.174 13.079 14.347 13.151 C 14.519 13.223 14.702 13.259 14.894 13.26 C 15.087 13.259 15.252 13.222 15.389 13.149 C 15.526 13.075 15.648 12.98 15.753 12.865 C 15.859 12.75 15.943 12.619 16.004 12.471 C 16.065 12.323 16.116 12.176 16.156 12.029 Z M 15.406 11.905 C 15.391 12.045 15.372 12.176 15.35 12.298 C 15.328 12.421 15.295 12.527 15.253 12.617 C 15.21 12.707 15.156 12.776 15.089 12.825 C 15.022 12.873 14.937 12.898 14.833 12.898 C 14.618 12.898 14.42 12.798 14.238 12.598 C 14.057 12.398 13.881 12.16 13.71 11.883 C 13.466 11.487 13.277 11.08 13.143 10.663 C 13.009 10.245 12.895 9.8423 12.798 9.454 L 15.061 9.454 C 15.161 9.8602 15.254 10.274 15.339 10.696 C 15.398 10.98 15.428 11.26 15.428 11.538 C 15.428 11.66 15.421 11.782 15.406 11.905 Z M 12.681 9.0168 C 12.582 8.6099 12.494 8.1997 12.42 7.786 C 12.361 7.4871 12.331 7.1882 12.331 6.89 C 12.331 6.778 12.335 6.67 12.342 6.5661 C 12.35 6.4254 12.367 6.2939 12.392 6.1717 C 12.418 6.0493 12.453 5.944 12.495 5.8559 C 12.538 5.7676 12.594 5.6994 12.665 5.6508 C 12.735 5.6022 12.821 5.578 12.921 5.5783 C 13.132 5.578 13.329 5.6768 13.513 5.8748 C 13.696 6.0725 13.869 6.3104 14.033 6.5877 C 14.277 6.9905 14.466 7.3987 14.6 7.8127 C 14.733 8.2263 14.848 8.6278 14.944 9.0168 Z " fill-rule="evenodd"/>
</g>
<path transform="matrix(.0932334,0,0,-.09323538,0,283.69996)" stroke-width="15" stroke-linecap="round" stroke-linejoin="round" fill="none" stroke="#000000" d="M 3005.68 763.93 C 3028.38 732.26 3046.47 697.52 3059.39 660.76 "/>
<clipPath id="cp4">
<path transform="matrix(1.8646615,0,0,-1.8646749,282.6436,250.27787)" d="M 0 0 L 18.205 0 L 18.205 17.334 L 0 17.334 Z " fill-rule="evenodd"/>
</clipPath>
<g clip-path="url(#cp4)">
<path transform="matrix(1.8646615,0,0,-1.8646749,282.6436,250.27787)" d="M 10.574 5.5567 C 10.586 5.5311 10.591 5.5078 10.591 5.4865 C 10.591 5.4575 10.584 5.4359 10.569 5.4217 C 10.546 5.3786 10.504 5.357 10.441 5.357 L 2.2124 5.357 C 2.153 5.357 2.1105 5.3786 2.0845 5.4217 C 2.0697 5.4359 2.0623 5.4575 2.0623 5.4865 C 2.0623 5.5078 2.068 5.5311 2.0788 5.5567 L 6.021 13.238 C 6.0692 13.342 6.1546 13.392 6.2767 13.389 L 6.3766 13.389 C 6.4916 13.389 6.577 13.34 6.6323 13.243 L 10.574 5.5567 Z M 5.993 12.18 L 2.9462 6.2476 L 9.0344 6.2476 Z " fill-rule="evenodd"/>
<path transform="matrix(1.8646615,0,0,-1.8646749,282.6436,250.27787)" d="M 16.156 12.029 C 16.245 11.687 16.29 11.338 16.29 10.982 C 16.29 10.87 16.286 10.762 16.279 10.658 C 16.242 10.182 16.162 9.7057 16.04 9.2273 C 15.906 8.7449 15.738 8.2668 15.534 7.7938 C 15.33 7.3205 15.059 6.8664 14.722 6.4312 C 14.607 6.2834 14.48 6.1373 14.341 5.9936 C 14.202 5.8495 14.053 5.721 13.894 5.6076 C 13.734 5.4943 13.568 5.4015 13.396 5.33 C 13.224 5.2578 13.043 5.222 12.854 5.222 C 12.661 5.222 12.495 5.2588 12.356 5.3327 C 12.217 5.4062 12.098 5.5014 11.998 5.6184 C 11.898 5.7352 11.815 5.8657 11.75 6.0098 C 11.686 6.1535 11.633 6.3013 11.592 6.4528 C 11.499 6.7871 11.453 7.1326 11.453 7.4892 C 11.453 7.6039 11.46 7.7172 11.475 7.8292 C 11.505 8.2968 11.584 8.7698 11.714 9.2489 C 11.836 9.7307 12.001 10.207 12.209 10.679 C 12.417 11.15 12.693 11.606 13.037 12.045 C 13.152 12.192 13.279 12.339 13.416 12.485 C 13.553 12.63 13.699 12.76 13.855 12.873 C 14.01 12.987 14.174 13.079 14.347 13.151 C 14.519 13.223 14.702 13.259 14.894 13.26 C 15.087 13.259 15.252 13.222 15.389 13.149 C 15.526 13.075 15.648 12.98 15.753 12.865 C 15.859 12.75 15.943 12.619 16.004 12.471 C 16.065 12.323 16.116 12.176 16.156 12.029 Z M 15.406 11.905 C 15.391 12.045 15.372 12.176 15.35 12.298 C 15.328 12.421 15.295 12.527 15.253 12.617 C 15.21 12.707 15.156 12.776 15.089 12.825 C 15.022 12.873 14.937 12.898 14.833 12.898 C 14.618 12.898 14.42 12.798 14.238 12.598 C 14.057 12.398 13.881 12.16 13.71 11.883 C 13.466 11.487 13.277 11.08 13.143 10.663 C 13.009 10.245 12.895 9.8423 12.798 9.454 L 15.061 9.454 C 15.161 9.8602 15.254 10.274 15.339 10.696 C 15.398 10.98 15.428 11.26 15.428 11.538 C 15.428 11.66 15.421 11.782 15.406 11.905 Z M 12.681 9.0168 C 12.582 8.6099 12.494 8.1997 12.42 7.786 C 12.361 7.4871 12.331 7.1882 12.331 6.89 C 12.331 6.778 12.335 6.67 12.342 6.5661 C 12.35 6.4254 12.367 6.2939 12.392 6.1717 C 12.418 6.0493 12.453 5.944 12.495 5.8559 C 12.538 5.7676 12.594 5.6994 12.665 5.6508 C 12.735 5.6022 12.821 5.578 12.921 5.5783 C 13.132 5.578 13.329 5.6768 13.513 5.8748 C 13.696 6.0725 13.869 6.3104 14.033 6.5877 C 14.277 6.9905 14.466 7.3987 14.6 7.8127 C 14.733 8.2263 14.848 8.6278 14.944 9.0168 Z " fill-rule="evenodd"/>
</g>
<path transform="matrix(.0932334,0,0,-.09323538,0,283.69996)" d="M 2608.29 346.66 L 2731.02 409.19 L 2734.43 402.51 L 2611.69 339.97 Z M 2516.53 295.69 L 2620.3 323.32 L 2611.79 340.02 L 2608.38 346.7 L 2599.87 363.41 Z M 2826.19 453.47 L 2722.42 425.85 L 2730.93 409.15 L 2734.33 402.46 L 2742.85 385.76 Z " fill="#ff8000"/>
<path transform="matrix(.0932334,0,0,-.09323538,0,283.69996)" stroke-width="13.125" stroke-linecap="round" stroke-linejoin="round" fill="none" stroke="#ff8040" d="M 2497.47 333.11 L 2535.59 258.28 "/>
<path transform="matrix(.0932334,0,0,-.09323538,0,283.69996)" stroke-width="13.125" stroke-linecap="round" stroke-linejoin="round" fill="none" stroke="#ff8040" d="M 2807.12 490.88 L 2845.25 416.06 "/>
<clipPath id="cp5">
<path transform="matrix(1.8646412,0,0,-1.8646749,245.59542,281.63545)" d="M 0 0 L 16.543 0 L 16.543 17.334 L 0 17.334 Z " fill-rule="evenodd"/>
</clipPath>
<g clip-path="url(#cp5)">
<path transform="matrix(1.8646412,0,0,-1.8646749,245.59542,281.63545)" d="M 10.574 5.5567 C 10.586 5.5311 10.591 5.5078 10.591 5.4865 C 10.591 5.4575 10.584 5.4359 10.569 5.4217 C 10.546 5.3786 10.504 5.357 10.441 5.357 L 2.2124 5.357 C 2.153 5.357 2.1105 5.3786 2.0845 5.4217 C 2.0697 5.4359 2.0623 5.4575 2.0623 5.4865 C 2.0623 5.5078 2.068 5.5311 2.0788 5.5567 L 6.021 13.238 C 6.0692 13.342 6.1546 13.392 6.2767 13.389 L 6.3766 13.389 C 6.4916 13.389 6.577 13.34 6.6323 13.243 L 10.574 5.5567 Z M 5.993 12.18 L 2.9462 6.2476 L 9.0344 6.2476 Z " fill="#ff8000" fill-rule="evenodd"/>
<path transform="matrix(1.8646412,0,0,-1.8646749,245.59542,281.63545)" d="M 12.531 6.5823 C 12.494 6.4345 12.468 6.2959 12.453 6.1667 C 12.446 6.1016 12.442 6.0422 12.442 5.9885 C 12.442 5.9413 12.446 5.891 12.453 5.8374 C 12.465 5.7507 12.491 5.6859 12.531 5.6427 C 12.572 5.5995 12.633 5.578 12.715 5.5783 C 12.793 5.578 12.862 5.6103 12.923 5.6751 C 12.985 5.7399 13.045 5.836 13.104 5.9639 C 13.164 6.0914 13.218 6.2446 13.268 6.4227 C 13.318 6.6009 13.371 6.7908 13.426 6.9926 C 13.449 7.0931 13.512 7.1434 13.616 7.1437 L 13.744 7.1437 C 13.833 7.1434 13.877 7.1039 13.877 7.0249 L 13.877 6.9872 C 13.84 6.8212 13.792 6.6366 13.732 6.4335 C 13.673 6.2301 13.599 6.0402 13.51 5.864 C 13.421 5.6876 13.306 5.5365 13.165 5.4106 C 13.024 5.2848 12.852 5.222 12.648 5.222 C 12.455 5.222 12.289 5.2588 12.148 5.3327 C 12.007 5.4062 11.894 5.5085 11.809 5.64 C 11.724 5.7713 11.673 5.9217 11.659 6.0911 C 11.651 6.1339 11.647 6.1808 11.647 6.2314 C 11.647 6.3536 11.662 6.4777 11.692 6.6039 L 13.115 12.131 C 13.145 12.25 13.165 12.34 13.176 12.401 L 13.176 12.417 C 13.176 12.45 13.167 12.473 13.148 12.488 C 13.104 12.516 13.021 12.536 12.898 12.547 C 12.776 12.558 12.635 12.563 12.476 12.563 C 12.42 12.563 12.38 12.581 12.354 12.617 C 12.331 12.638 12.32 12.665 12.32 12.698 C 12.32 12.719 12.326 12.739 12.337 12.758 L 12.354 12.839 C 12.365 12.888 12.391 12.926 12.431 12.952 C 12.472 12.977 12.517 12.995 12.565 13.006 L 14.016 13.125 L 14.049 13.125 C 14.138 13.124 14.183 13.085 14.183 13.006 C 14.183 12.984 14.179 12.961 14.172 12.936 Z " fill="#ff8000" fill-rule="evenodd"/>
</g>
<path transform="matrix(.0932334,0,0,-.09323538,0,283.69996)" stroke-width="15" stroke-linecap="round" stroke-linejoin="round" fill="none" stroke="#0080ff" d="M 2416.58 512.61 L 2483.77 538.93 "/>
<path transform="matrix(.0932334,0,0,-.09323538,0,283.69996)" stroke-width="15" stroke-linecap="round" stroke-linejoin="round" fill="none" stroke="#0080ff" d="M 2484.15 537.98 L 2510.79 469.94 "/>
<path transform="matrix(.0932334,0,0,-.09323538,0,283.69996)" stroke-width="15" stroke-linecap="round" stroke-linejoin="round" fill="none" stroke="#008000" d="M 2704.73 652.8 L 2763.55 694.59 "/>
<path transform="matrix(.0932334,0,0,-.09323538,0,283.69996)" stroke-width="15" stroke-linecap="round" stroke-linejoin="round" fill="none" stroke="#008000" d="M 2764.14 693.76 L 2806.46 634.19 "/>
</g>
</g>
</g>
</g>
</g>
</svg>
